<svg xmlns="http://www.w3.org/2000/svg" viewBox="0 0 320 320" fill="none"><path d="M50 287c2-19 2-39 3-58 2-34 18-64 45-84 17-13 37-20 59-20s43 7 60 20c27 20 43 50 45 84 1 19 1 39 3 58h-55v-54c0-29-22-51-50-51s-50 22-50 51v54H50Z" fill="#A7232F"/><path d="M67 214V63c0-9-5-15-12-20-4-3-5-6-4-10h218c1 4 0 7-4 10-7 5-12 11-12 20v151c-8-28-24-51-47-67V58h-96v89c-23 16-39 39-43 67Z" fill="#A7232F"/><path d="M142 226c2 8 7 12 14 13-5-15-2-28 4-42 8 11 13 23 17 36 2 8-1 15-5 22 8-3 12-10 13-20 10 17 4 31-8 38-14 9-31 1-38-17-4-11-2-21 3-30Z" fill="#A7232F"/></svg>
